<?xml version="1.0" encoding="UTF-8" standalone="no"?>
<!-- Created with Inkscape (http://www.inkscape.org/) -->
<svg
    xmlns="http://www.w3.org/2000/svg"
    viewBox="0 0 188.07 227.41"
    version="1"
  >
  <g stroke="#000" transform="translate(-235.68 -174.66)">
        <g fillRule="evenodd" strokeLinejoin="round" strokeWidth="0.898">
          <path
            fill="#5c5c5c"
            d="M267.31 288.54s42.68 2.29 63.55-.22 19.93-9.82 19.93-9.82l-78.76-6.11-4.72 16.15z"
          ></path>
          <path
            fill="#9b9b9b"
            d="M267.08 288.54s-6.63-1.71-7.31-3.38c-.56-1.38 4.24-14.19 4.24-14.19l8.02 1.53-4.95 16.04z"
          ></path>
          <path
            fill="#8e8e8e"
            d="M271.91 272.28l-8.02-1.42 78.29 5.79 8.02 1.63-78.29-6z"
          ></path>
        </g>
        <g strokeLinejoin="round">
          <path
            fill="#c1c1c1"
            fillRule="evenodd"
            strokeWidth="0.899"
            d="M335.99 328.2l16.29 46.93c-9.69.03-13.73.06-20.35.09l-10.11-7.62h-53.76l-11.02 7.62-17.23.23 17.64-46.43 78.54-.82z"
          ></path>
          <path
            fill="#f1f1f1"
            fillRule="evenodd"
            strokeWidth="0.899"
            d="M239.58 375.45l17.92-46.21-4.6-.45-16.77 43.07 3.45 3.59z"
          ></path>
          <path
            fill="#f1f1f1"
            d="M371.07 370.22a30.357 9.643 0 11-60.71 0 30.357 9.643 0 1160.71 0z"
            transform="matrix(.90972 0 0 .88817 -15.175 18.464)"
          ></path>
          <path
            fill="#fff"
            fillRule="evenodd"
            strokeWidth="0.899"
            d="M290.23 354.74c13.65-.26 27.39-3.42 27.62-7.62.16-2.93-6.66-7.29-15.92-8.4-13.55-1.63-35.07 3.73-34.93 8.56.14 5 15.11 7.62 23.23 7.46z"
          ></path>
        </g>
        <path
          fill="#6b65a1"
          fillRule="evenodd"
          strokeLinejoin="round"
          strokeWidth="1"
          d="M286.88 349.3l99-1.01 37.37-157.59s-1.15-9.03-7.31-13.77c-5.54-4.27-17.31.51-17.31.51l-37 148.62-71.72 2.02-3.03 21.22z"
        ></path>
        <path
          fill="#adb7d4"
          fillRule="evenodd"
          strokeLinecap="round"
          strokeLinejoin="round"
          strokeWidth="1"
          d="M398.51 177.57s-48.23 6.22-53.04 13.64c-3.33 5.14-27.78 113.64-27.78 113.64l-67.47.06 39.69 23.68 72.23-3.03 36.37-147.99z"
        ></path>
        <path
          fill="#504b7b"
          fillRule="evenodd"
          strokeLinecap="round"
          strokeLinejoin="round"
          strokeWidth="1"
          d="M289.41 328.21l-2.65 21.09-38.26-23.62 1.64-20.83 39.27 23.36z"
        ></path>
        <g fillRule="evenodd" strokeLinejoin="round" strokeWidth="1">
          <path
            fill="#5c5c5c"
            d="M297.93 306.45s45.71 2.65 68.06-.26c22.35-2.9 21.34-11.36 21.34-11.36l-84.35-7.07-5.05 18.69z"
          ></path>
          <path
            fill="#9b9b9b"
            d="M297.68 306.45s-7.1-1.99-7.83-3.92c-.6-1.59 4.55-16.41 4.55-16.41l8.58 1.76-5.3 18.57z"
          ></path>
          <path
            fill="#8e8e8e"
            d="M302.86 287.63l-8.59-1.64 83.84 6.69 8.59 1.9-83.84-6.95z"
          ></path>
        </g>
        <g strokeLinejoin="round">
          <path
            fill="#c1c1c1"
            fillRule="evenodd"
            strokeWidth="1"
            d="M379.23 348.37l17.91 52.84c-10.65.04-15.1.07-22.37.11l-11.12-8.59h-59.09l-12.12 8.59-18.94.25 19.39-52.27 86.34-.93z"
          ></path>
          <path
            fill="#f1f1f1"
            fillRule="evenodd"
            strokeWidth="1"
            d="M273.25 401.57l19.69-52.02-5.05-.51-18.43 48.49 3.79 4.04z"
          ></path>
          <path
            fill="#f1f1f1"
            d="M371.07 370.22a30.357 9.643 0 11-60.71 0 30.357 9.643 0 1160.71 0z"
            transform="translate(-6.786 -.357)"
          ></path>
          <path
            fill="#fff"
            fillRule="evenodd"
            strokeWidth="1"
            d="M328.93 378.26c15-.29 30.1-3.85 30.36-8.58.17-3.3-7.33-8.21-17.5-9.46-14.9-1.83-38.55 4.2-38.4 9.64.16 5.63 16.61 8.57 25.54 8.4z"
          ></path>
        </g>
        <path
          fill="#2fb9ff"
          fillRule="evenodd"
          strokeLinejoin="round"
          strokeWidth="1"
          d="M351.53 196.76c-2.79 2.23-8.46 20.17-6.56 21.72 2.57 2.1 32.86.19 37.12-3.28 4.34-3.53 9.92-23.89 7.32-26.52-3.15-3.2-34.36 5.29-37.88 8.08z"
        ></path>
        <path
          fill="#1472a8"
          fillRule="evenodd"
          strokeWidth="1"
          d="M395.55 189.64c11.77-4.62 20.32-.66 25.91 9.47l-3.54 14.36c-6.39-9.43-14.3-13.23-25.92-8.86l3.55-14.97z"
        ></path>
      </g>
</svg>
